<svg width="100" height="100" viewBox="0 0 100 100" fill="none" xmlns="http://www.w3.org/2000/svg">
<rect width="100" height="100" rx="50" fill="url(#paint0_linear_14_50)"/>
<path d="M52.8571 23V23C57.2754 23 60.8571 26.5817 60.8571 31V77V77C56.4389 77 52.8571 73.4183 52.8571 69V23Z" fill="black"/>
<path fill-rule="evenodd" clip-rule="evenodd" d="M52.8571 49.75C52.8571 45.4698 56.3269 42 60.6071 42H76.1071C80.3874 42 83.8571 45.4698 83.8571 49.75V69.125C83.8571 71.2651 82.1223 73 79.9821 73C77.842 73 76.1071 71.2651 76.1071 69.125V49.75H60.6071V69.125C60.6071 71.2651 58.8723 73 56.7321 73C54.592 73 52.8571 71.2651 52.8571 69.125V49.75Z" fill="black"/>
<path fill-rule="evenodd" clip-rule="evenodd" d="M40.1429 26.8571C44.4033 26.8571 47.8571 30.3109 47.8571 34.5714V50C47.8571 54.2605 44.4033 57.7143 40.1429 57.7143H20.8571C18.7269 57.7143 17 55.9874 17 53.8571C17 51.7269 18.7269 50 20.8571 50H40.1429V34.5714H20.8571C18.7269 34.5714 17 32.8445 17 30.7143C17 28.584 18.7269 26.8571 20.8571 26.8571H40.1429Z" fill="black"/>
<path d="M17 23V23C21.2605 23 24.7143 26.4538 24.7143 30.7143V77V77C20.4538 77 17 73.5462 17 69.2857V23Z" fill="black"/>
<defs>
<linearGradient id="paint0_linear_14_50" x1="50" y1="0" x2="50" y2="100" gradientUnits="userSpaceOnUse">
<stop stop-color="white"/>
<stop offset="1" stop-color="#E1DAFF"/>
</linearGradient>
</defs>
</svg>
